<?xml version="1.0" encoding="UTF-8" standalone="no"?>
<!-- Created with Inkscape (http://www.inkscape.org/) -->

<svg
   xmlns:dc="http://purl.org/dc/elements/1.1/"
   xmlns:cc="http://creativecommons.org/ns#"
   xmlns:rdf="http://www.w3.org/1999/02/22-rdf-syntax-ns#"
   xmlns:svg="http://www.w3.org/2000/svg"
   xmlns="http://www.w3.org/2000/svg"
   xmlns:sodipodi="http://sodipodi.sourceforge.net/DTD/sodipodi-0.dtd"
   xmlns:inkscape="http://www.inkscape.org/namespaces/inkscape"
   width="800"
   height="600"
   id="svg3060"
   version="1.1"
   inkscape:version="0.48.2 r9819"
   sodipodi:docname="background.svg"
   inkscape:export-filename="C:\Users\Lebby\Documents\Visual Studio 2010\Projects\Develia\Develia\DeveliaContent\background.png"
   inkscape:export-xdpi="90"
   inkscape:export-ydpi="90">
  <defs
     id="defs3062">
    <filter
       inkscape:collect="always"
       id="filter3872">
      <feGaussianBlur
         inkscape:collect="always"
         stdDeviation="16.962707"
         id="feGaussianBlur3874" />
    </filter>
    <filter
       inkscape:collect="always"
       id="filter3895"
       x="-0.18964723"
       width="1.3792945"
       y="-0.23697775"
       height="1.4739555">
      <feGaussianBlur
         inkscape:collect="always"
         stdDeviation="55.566656"
         id="feGaussianBlur3897" />
    </filter>
    <filter
       inkscape:collect="always"
       id="filter3942"
       x="-0.12058771"
       width="1.2411754"
       y="-0.23903595"
       height="1.4780719">
      <feGaussianBlur
         inkscape:collect="always"
         stdDeviation="50.799916"
         id="feGaussianBlur3944" />
    </filter>
    <filter
       inkscape:collect="always"
       id="filter3956"
       x="-0.13661872"
       width="1.2732374"
       y="-0.18104476"
       height="1.3620895">
      <feGaussianBlur
         inkscape:collect="always"
         stdDeviation="14.002995"
         id="feGaussianBlur3958" />
    </filter>
    <filter
       color-interpolation-filters="sRGB"
       inkscape:collect="always"
       id="filter3956-7"
       x="-0.13661872"
       width="1.2732373"
       y="-0.18104476"
       height="1.3620895">
      <feGaussianBlur
         inkscape:collect="always"
         stdDeviation="14.002995"
         id="feGaussianBlur3958-4" />
    </filter>
    <filter
       color-interpolation-filters="sRGB"
       inkscape:collect="always"
       id="filter3942-9"
       x="-0.12058771"
       width="1.2411754"
       y="-0.23903595"
       height="1.4780719">
      <feGaussianBlur
         inkscape:collect="always"
         stdDeviation="50.799916"
         id="feGaussianBlur3944-4" />
    </filter>
    <filter
       color-interpolation-filters="sRGB"
       inkscape:collect="always"
       id="filter3942-8"
       x="-0.12058771"
       width="1.2411754"
       y="-0.23903595"
       height="1.4780719">
      <feGaussianBlur
         inkscape:collect="always"
         stdDeviation="50.799916"
         id="feGaussianBlur3944-8" />
    </filter>
    <filter
       color-interpolation-filters="sRGB"
       inkscape:collect="always"
       id="filter3895-4"
       x="-0.18964723"
       width="1.3792945"
       y="-0.23697776"
       height="1.4739555">
      <feGaussianBlur
         inkscape:collect="always"
         stdDeviation="55.566656"
         id="feGaussianBlur3897-5" />
    </filter>
    <filter
       color-interpolation-filters="sRGB"
       inkscape:collect="always"
       id="filter3895-4-1"
       x="-0.18964723"
       width="1.3792945"
       y="-0.23697776"
       height="1.4739555">
      <feGaussianBlur
         inkscape:collect="always"
         stdDeviation="55.566656"
         id="feGaussianBlur3897-5-7" />
    </filter>
  </defs>
  <sodipodi:namedview
     id="base"
     pagecolor="#ffffff"
     bordercolor="#666666"
     borderopacity="1.0"
     inkscape:pageopacity="0.0"
     inkscape:pageshadow="2"
     inkscape:zoom="0.35"
     inkscape:cx="-116.42857"
     inkscape:cy="520"
     inkscape:document-units="px"
     inkscape:current-layer="layer1"
     showgrid="false"
     inkscape:window-width="1304"
     inkscape:window-height="746"
     inkscape:window-x="54"
     inkscape:window-y="-8"
     inkscape:window-maximized="1" />
  <metadata
     id="metadata3065">
    <rdf:RDF>
      <cc:Work
         rdf:about="">
        <dc:format>image/svg+xml</dc:format>
        <dc:type
           rdf:resource="http://purl.org/dc/dcmitype/StillImage" />
        <dc:title></dc:title>
      </cc:Work>
    </rdf:RDF>
  </metadata>
  <g
     inkscape:label="Livello 1"
     inkscape:groupmode="layer"
     id="layer1"
     transform="translate(0,-452.36218)">
    <rect
       style="fill:#40e0d0;stroke:none;fill-opacity:1"
       id="rect3068"
       width="820"
       height="620"
       x="-2.8571429"
       y="-2.8571429"
       transform="translate(0,452.36218)" />
    <path
       style="fill:none;stroke:#ffff00;stroke-width:20;stroke-linecap:butt;stroke-linejoin:miter;stroke-miterlimit:4;stroke-opacity:1;stroke-dasharray:none;filter:url(#filter3895)"
       d="m 140,672.36218 c -6.38502,-58.14096 4.18135,-143.63553 75.36558,-153.87398 76.88453,-6.70126 147.41432,45.06436 193.45383,102.33203 46.21802,46.36808 9.87608,118.17187 -53.79125,113.1689 -50.81146,20.41643 -95.98253,-24.39948 -83.6351,-75.62176 14.42164,-93.03761 106.74678,-148.256 190.05024,-172.37017 64.94432,-20.10754 158.93809,-10.50048 183.82399,63.6189 -1.23623,61.57768 67.0294,82.02476 74.19898,144.81518 28.58684,77.93442 8.44036,183.4418 -71.73166,221.98841 -44.09065,49.40491 -139.34953,-18.65433 -70.06811,-63.08702 55.77129,-20.18961 91.95537,54.56359 67.2734,99.50877 -14.93711,52.89486 -69.90524,108.05836 -127.83933,78.47826 C 387.6222,974.61308 305.34368,840.01739 165.42988,802.46684 120.0479,786.90032 75.321888,769.33345 28.571457,758.07687"
       id="path3840"
       inkscape:connector-curvature="0" />
    <path
       style="fill:none;stroke:#ffff00;stroke-width:20;stroke-linecap:butt;stroke-linejoin:miter;stroke-miterlimit:4;stroke-opacity:1;stroke-dasharray:none;filter:url(#filter3895-4)"
       d="m 214.11414,683.64138 c -6.38502,-58.14096 4.18135,-143.63553 75.36558,-153.87398 76.88453,-6.70126 147.41432,45.06436 193.45383,102.33203 46.21802,46.36808 9.87608,118.17187 -53.79125,113.1689 -50.81146,20.41643 -95.98253,-24.39948 -83.6351,-75.62176 14.42164,-93.03761 106.74678,-148.256 190.05024,-172.37017 64.94432,-20.10754 158.93809,-10.50048 183.82399,63.6189 -1.23623,61.57768 67.0294,82.02476 74.19898,144.81518 28.58684,77.93442 8.44036,183.4418 -71.73166,221.98843 -44.09065,49.4049 -139.34953,-18.6543 -70.06811,-63.08704 55.77129,-20.18961 91.95537,54.56364 67.2734,99.50874 C 704.11693,1017.0155 649.1488,1072.179 591.21471,1042.5989 461.73634,985.89231 379.45782,851.29659 239.54402,813.74604 194.16204,798.17952 149.43603,780.61265 102.6856,769.35607"
       id="path3840-5"
       inkscape:connector-curvature="0" />
    <path
       style="fill:none;stroke:#00ff00;stroke-width:20;stroke-linecap:butt;stroke-linejoin:miter;stroke-miterlimit:4;stroke-opacity:1;stroke-dasharray:none;filter:url(#filter3895-4-1)"
       d="M 79.82842,729.35566 C 73.4434,671.2147 84.00977,585.72013 155.194,575.48168 c 76.88453,-6.70126 147.41432,45.06436 193.45383,102.33203 46.21802,46.36808 9.87608,118.17187 -53.79125,113.1689 -50.81146,20.41643 -95.98253,-24.39948 -83.6351,-75.62176 14.42164,-93.03761 106.74678,-148.256 190.05024,-172.37017 64.94432,-20.10754 158.93809,-10.50048 183.82399,63.6189 -1.23623,61.57768 67.0294,82.02476 74.19898,144.81518 28.58684,77.93442 8.44036,183.4418 -71.73166,221.98843 -44.09065,49.40491 -139.34953,-18.6543 -70.06811,-63.08704 55.77129,-20.18961 91.95537,54.56364 67.2734,99.50875 -14.93711,52.8949 -69.90524,108.0584 -127.83933,78.4783 C 327.45062,1031.6066 245.1721,897.01087 105.2583,859.46032 59.87632,843.8938 15.15031,826.32693 -31.60012,815.07035"
       id="path3840-5-1"
       inkscape:connector-curvature="0"
       transform="matrix(0.75144977,0.29090868,-0.3887101,0.56238123,447.42996,221.09529)" />
  </g>
</svg>
